<svg width="257" height="103" viewBox="0 0 257 103" fill="none" xmlns="http://www.w3.org/2000/svg">
<path d="M56.1205 24.0147C56.1205 26.7691 55.4893 29.3801 54.2269 31.8475C53.0219 34.2576 51.3291 36.4382 49.1485 38.3892C46.968 40.2828 44.4144 41.8895 41.4879 43.2093C38.5614 44.5292 35.3766 45.4186 31.9336 45.8777C32.7944 48.4599 33.8273 51.1282 35.0323 53.8826C36.2947 56.5796 37.6432 59.1905 39.0778 61.7154C40.5124 64.2402 42.0043 66.5642 43.5537 68.6874C45.103 70.8106 46.6237 72.5607 48.1156 73.9379C47.8287 74.5118 47.3983 75.0856 46.8245 75.6594C46.3081 76.2333 45.6768 76.7497 44.9309 77.2088C44.2423 77.7252 43.4963 78.1269 42.6929 78.4138C41.947 78.7581 41.2297 78.9303 40.5411 78.9303C39.2786 78.9303 38.0736 78.3277 36.9259 77.1227C35.7783 75.9176 34.6019 74.024 33.3969 71.4418C32.2492 68.8022 31.0155 65.4166 29.6957 61.285C28.4333 57.096 27.0274 52.075 25.478 46.222C24.8468 46.222 24.2156 46.222 23.5844 46.222C22.9532 46.222 22.4654 46.1646 22.1211 46.0498C21.7195 45.8203 21.2891 45.4186 20.83 44.8448C19.2807 48.173 17.9035 51.3003 16.6984 54.2269C15.4934 57.1534 14.4031 59.9939 13.4276 62.7483C12.5095 65.4453 11.6774 68.0849 10.9315 70.6671C10.2429 73.192 9.64034 75.7742 9.12389 78.4138C7.17287 77.9547 5.48007 77.1227 4.0455 75.9176C2.61092 74.7126 1.26242 73.0198 -7.67104e-07 70.8393C0.229531 70.3228 0.459063 69.835 0.688595 69.376C0.97551 68.8595 1.31981 68.1709 1.72149 67.3102C2.12317 66.3921 2.61092 65.2444 3.18475 63.8672C3.81597 62.49 4.61933 60.6538 5.59484 58.3585C6.62773 56.0631 7.83278 53.2514 9.20997 49.9232C10.6445 46.5949 12.366 42.5494 14.3744 37.7867C15.2926 35.6635 16.0672 33.7985 16.6984 32.1918C17.387 30.5851 17.9896 29.0644 18.506 27.6299C19.0225 26.1379 19.4815 24.6746 19.8832 23.2401C20.3423 21.7481 20.8013 20.0553 21.2604 18.1617C18.6208 19.0798 16.1533 20.1127 13.858 21.2604C11.6201 22.3506 9.75511 23.527 8.26315 24.7894C7.7467 24.4451 7.20156 23.9287 6.62773 23.2401C6.11129 22.5515 5.62353 21.8055 5.16447 21.0021C4.7054 20.1414 4.30372 19.2806 3.95942 18.4199C3.61513 17.5592 3.41429 16.7845 3.3569 16.0959C5.07839 14.9482 7.17287 13.8866 9.64034 12.9111C12.1652 11.9356 14.8335 11.1036 17.6453 10.415C20.457 9.66899 23.3262 9.09517 26.2527 8.69349C29.1792 8.2918 31.9049 8.09096 34.4298 8.09096C41.3157 8.09096 46.6524 9.52554 50.4396 12.3947C54.2269 15.2065 56.1205 19.0798 56.1205 24.0147ZM35.1184 16.7845C34.7167 17.3009 34.0855 18.3338 33.2247 19.8832C32.364 21.4325 31.3598 23.2975 30.2121 25.478C29.1219 27.6012 27.9455 29.9252 26.6831 32.45C25.478 34.9749 24.3017 37.471 23.154 39.9385C27.4578 39.9385 31.4172 39.5368 35.0323 38.7335C38.6474 37.9301 41.7748 36.8111 44.4144 35.3766C47.054 33.8846 49.0911 32.1631 50.5257 30.2121C52.0177 28.2037 52.7636 25.9945 52.7636 23.5844C52.7636 20.7152 51.7308 18.5347 49.665 17.0427C47.5992 15.4934 44.4144 14.7187 40.1107 14.7187C39.1352 14.7187 38.1597 14.7761 37.1842 14.8908C36.2087 14.9482 35.1758 15.0343 34.0855 15.1491L35.1184 16.7845ZM63.2163 74.4544C59.9455 74.1101 57.3346 72.6755 55.3835 70.1507C53.4325 67.6258 52.457 64.4124 52.457 60.5103C52.457 58.215 52.8013 55.8336 53.4899 53.3661C54.1785 50.8987 55.154 48.5173 56.4164 46.222C57.6789 43.8693 59.1708 41.66 60.8923 39.5942C62.6138 37.5284 64.4787 35.7496 66.4871 34.2576C69.6432 31.9049 72.5984 30.7285 75.3528 30.7285C77.1891 31.7041 78.9966 33.7412 80.7755 36.8398C81.0624 36.8398 81.3206 36.8398 81.5502 36.8398C81.7797 36.7825 82.0379 36.7538 82.3248 36.7538C85.3661 36.7538 86.8868 39.4508 86.8868 44.8448C86.8868 48.4599 86.2843 51.9029 85.0792 55.1737C83.9316 58.3871 82.2962 61.3137 80.173 63.9533C78.1072 66.5929 75.611 68.8308 72.6845 70.6671C69.8154 72.446 66.6593 73.7084 63.2163 74.4544ZM67.6061 47.3409C66.6306 48.6607 65.7125 50.0953 64.8517 51.6446C63.991 53.194 63.245 54.772 62.6138 56.3787C61.9826 57.9281 61.4948 59.4487 61.1505 60.9407C60.8062 62.3753 60.6341 63.6664 60.6341 64.814C60.6341 66.1912 60.8636 67.511 61.3227 68.7735C61.7817 70.0359 62.2982 70.7532 62.872 70.9253C65.4543 70.3515 67.807 69.2899 69.9301 67.7406C72.1107 66.1338 73.9756 64.1541 75.525 61.8014C77.1317 59.4487 78.3654 56.7804 79.2262 53.7965C80.1443 50.8126 80.6034 47.6278 80.6034 44.2422C80.6034 42.7503 80.5173 41.5739 80.3451 40.7132C80.173 39.8524 79.8861 39.1065 79.4844 38.4753C76.9595 39.2212 74.6929 40.4263 72.6845 42.0904C70.7335 43.7545 69.0407 45.5047 67.6061 47.3409ZM101.21 74.4544C97.9393 74.1101 95.3284 72.6755 93.3773 70.1507C91.4263 67.6258 90.4508 64.4124 90.4508 60.5103C90.4508 58.215 90.7951 55.8336 91.4837 53.3661C92.1723 50.8987 93.1478 48.5173 94.4102 46.222C95.6727 43.8693 97.1646 41.66 98.8861 39.5942C100.608 37.5284 102.473 35.7496 104.481 34.2576C107.637 31.9049 110.592 30.7285 113.347 30.7285C115.183 31.7041 116.99 33.7412 118.769 36.8398C119.056 36.8398 119.314 36.8398 119.544 36.8398C119.774 36.7825 120.032 36.7538 120.319 36.7538C123.36 36.7538 124.881 39.4508 124.881 44.8448C124.881 48.4599 124.278 51.9029 123.073 55.1737C121.925 58.3871 120.29 61.3137 118.167 63.9533C116.101 66.5929 113.605 68.8308 110.678 70.6671C107.809 72.446 104.653 73.7084 101.21 74.4544ZM105.6 47.3409C104.624 48.6607 103.706 50.0953 102.846 51.6446C101.985 53.194 101.239 54.772 100.608 56.3787C99.9764 57.9281 99.4886 59.4487 99.1443 60.9407C98.8 62.3753 98.6279 63.6664 98.6279 64.814C98.6279 66.1912 98.8574 67.511 99.3165 68.7735C99.7755 70.0359 100.292 70.7532 100.866 70.9253C103.448 70.3515 105.801 69.2899 107.924 67.7406C110.104 66.1338 111.969 64.1541 113.519 61.8014C115.125 59.4487 116.359 56.7804 117.22 53.7965C118.138 50.8126 118.597 47.6278 118.597 44.2422C118.597 42.7503 118.511 41.5739 118.339 40.7132C118.167 39.8524 117.88 39.1065 117.478 38.4753C114.953 39.2212 112.687 40.4263 110.678 42.0904C108.727 43.7545 107.034 45.5047 105.6 47.3409ZM178.798 45.0169C177.88 45.0743 176.761 45.6768 175.441 46.8245C174.121 47.9148 172.687 49.3493 171.138 51.1282C169.646 52.8497 168.068 54.772 166.403 56.8952C164.797 59.0184 163.219 61.1415 161.669 63.2647C160.177 65.3305 158.772 67.2815 157.452 69.1178C156.132 70.954 155.013 72.4173 154.095 73.5076C152.832 72.9911 151.742 72.2451 150.824 71.2696C149.906 70.2367 149.246 68.9743 148.844 67.4823C149.131 65.7035 149.533 63.8672 150.049 61.9736C150.566 60.0226 151.226 58.0142 152.029 55.9484C152.89 53.8826 153.923 51.7307 155.128 49.4928C156.39 47.1975 157.911 44.7874 159.69 42.2625C158.829 42.3199 157.653 42.9511 156.161 44.1562C154.669 45.3038 153.062 46.8245 151.34 48.7181C149.619 50.5544 147.84 52.6488 146.004 55.0015C144.168 57.2969 142.446 59.5635 140.839 61.8014C138.716 64.7853 136.937 67.3963 135.503 69.6342C134.126 71.8721 133.121 73.192 132.49 73.5936C130.998 72.5034 129.965 71.327 129.391 70.0646C128.818 68.8022 128.387 67.3963 128.1 65.8469C128.158 64.4697 128.359 62.7483 128.703 60.6825C129.105 58.6167 129.65 56.4935 130.338 54.313C131.658 50.124 133.351 45.9637 135.417 41.8322C137.54 37.7006 139.577 33.9133 141.528 30.4703C143.135 30.8146 144.569 31.3598 145.832 32.1057C147.151 32.8517 148.529 33.942 149.963 35.3766C149.389 37.1554 148.5 39.0491 147.295 41.0575C146.09 43.0085 144.827 45.0743 143.508 47.2548C142.188 49.4354 140.983 51.6733 139.893 53.9687C138.802 56.264 138.085 58.588 137.741 60.9407C139.347 58.6454 141.241 56.0058 143.422 53.0218C145.66 50.0379 147.926 47.2262 150.221 44.5865C152.574 41.9469 154.898 39.709 157.193 37.8727C159.489 36.0365 161.555 35.1183 163.391 35.1183C164.079 35.1183 164.825 35.2331 165.629 35.4626C166.432 35.6922 167.178 35.9791 167.867 36.3234C168.555 36.6677 169.129 37.012 169.588 37.3563C170.047 37.6432 170.305 37.8727 170.363 38.0449C170.076 39.1925 169.387 40.7706 168.297 42.779C167.264 44.73 166.145 46.7958 164.94 48.9763C163.735 51.1569 162.616 53.2801 161.583 55.3458C160.55 57.3543 159.948 58.961 159.776 60.166C162.587 56.3214 165.227 52.8497 167.695 49.751C170.162 46.5949 172.486 43.8979 174.667 41.66C176.847 39.4221 178.856 37.7006 180.692 36.4955C182.585 35.2905 184.364 34.688 186.028 34.688C187.176 34.688 188.238 35.0036 189.213 35.6348C190.246 36.2086 190.963 37.0694 191.365 38.217C190.849 39.9385 189.988 42.0043 188.783 44.4144C187.635 46.8245 186.459 49.378 185.254 52.075C184.049 54.7146 182.958 57.3256 181.983 59.9078C181.065 62.49 180.606 64.814 180.606 66.8798C180.606 68.0849 180.778 68.8882 181.122 69.2899C181.466 69.6342 181.954 69.8064 182.585 69.8064C183.274 69.8064 183.905 69.6916 184.479 69.4621C185.11 69.1751 185.569 69.0317 185.856 69.0317C186.201 69.2612 186.401 69.5481 186.459 69.8924C186.516 70.2367 186.545 70.5523 186.545 70.8393C185.397 71.7574 184.221 72.5034 183.016 73.0772C181.811 73.7084 180.462 74.024 178.97 74.024C177.593 74.024 176.445 73.7945 175.527 73.3354C174.667 72.8763 173.949 72.2451 173.375 71.4418C172.802 70.6384 172.4 69.7203 172.17 68.6874C171.941 67.6545 171.826 66.5355 171.826 65.3305C171.826 63.3795 172.084 61.4571 172.601 59.5635C173.117 57.6125 173.72 55.7762 174.408 54.0547C175.154 52.2759 175.929 50.6404 176.732 49.1485C177.536 47.5991 178.224 46.222 178.798 45.0169ZM194.778 65.933C194.778 63.4082 195.38 59.8791 196.585 55.3458C197.79 50.7552 199.483 45.4186 201.664 39.336C205.221 29.6383 208.55 21.576 211.648 15.1491C214.804 8.6648 217.874 3.61509 220.858 -3.54322e-05C221.547 0.114729 222.379 0.401644 223.354 0.860708C224.387 1.31977 225.392 1.83622 226.367 2.41005C227.343 2.9265 228.203 3.47163 228.949 4.04546C229.753 4.61929 230.269 5.07836 230.499 5.42266C226.023 10.7019 222.092 16.3828 218.706 22.4654C215.321 28.548 212.222 35.52 209.41 43.3815C207 50.1527 205.164 56.264 203.902 61.7154C202.639 67.1094 202.008 71.6139 202.008 75.229C202.008 76.2046 202.008 76.8071 202.008 77.0366C202.008 77.2661 202.037 77.4957 202.094 77.7252C201.291 77.6104 200.602 77.4096 200.028 77.1227C199.454 76.8358 199.081 76.4915 198.909 76.0898C198.795 75.8029 198.479 75.3725 197.963 74.7987C197.446 74.2822 196.987 73.8805 196.585 73.5936C196.069 73.2493 195.639 72.3599 195.294 70.9253C194.95 69.4334 194.778 67.7693 194.778 65.933ZM247.57 58.1002C246.25 62.2892 244.93 66.1052 243.61 69.5481C242.29 72.9911 240.885 76.1472 239.393 79.0163C237.901 81.9429 236.294 84.6112 234.572 87.0213C232.851 89.4887 230.957 91.8127 228.891 93.9933C226.252 96.7477 223.526 98.8421 220.714 100.277C217.903 101.769 215.091 102.515 212.279 102.515C210.845 102.515 209.41 102.343 207.975 101.998C206.598 101.711 205.307 101.281 204.102 100.707C202.84 100.191 201.749 99.5594 200.831 98.8135C199.856 98.1249 199.167 97.3789 198.765 96.5755C198.765 95.8869 199.167 95.2844 199.97 94.768C200.659 95.3992 201.233 95.8869 201.692 96.2312C202.151 96.5755 202.61 96.8624 203.069 97.092C203.471 97.3215 203.93 97.465 204.446 97.5223C204.905 97.5797 205.451 97.6084 206.082 97.6084C209.353 97.6084 212.537 96.6329 215.636 94.6819C218.792 92.7882 221.747 90.0625 224.502 86.5048C227.313 83.0044 229.867 78.7294 232.162 73.6797C234.458 68.6874 236.409 63.0925 238.015 56.8952C237.269 58.0428 236.351 59.4487 235.261 61.1128C234.171 62.7769 232.966 64.441 231.646 66.1052C230.326 67.7119 228.949 69.1751 227.514 70.495C226.137 71.8148 224.789 72.7042 223.469 73.1633C222.551 73.1059 221.575 72.905 220.542 72.5607C219.567 72.2738 218.62 71.8435 217.702 71.2696C216.841 70.6958 216.066 70.0072 215.378 69.2038C214.689 68.4005 214.23 67.4823 214.001 66.4495C214.001 64.7853 214.058 63.4655 214.173 62.49C214.288 61.4571 214.488 60.3382 214.775 59.1331C215.292 56.9526 216.038 54.4851 217.013 51.7307C218.046 48.9763 219.222 46.2793 220.542 43.6397C221.919 40.9427 223.411 38.4466 225.018 36.1512C226.682 33.7985 228.404 31.9623 230.183 30.6425C230.642 30.6425 231.216 30.6999 231.904 30.8146C232.593 30.872 233.31 31.0155 234.056 31.245C234.802 31.4745 235.519 31.7614 236.208 32.1057C236.896 32.3927 237.499 32.7943 238.015 33.3108C237.384 33.8846 236.007 35.8069 233.884 39.0778C231.761 42.3486 229.408 47.054 226.826 53.194C226.539 53.8252 226.194 54.7433 225.793 55.9484C225.391 57.1534 224.989 58.4158 224.588 59.7356C224.243 61.0555 223.928 62.3466 223.641 63.609C223.354 64.8714 223.211 65.8756 223.211 66.6216C223.211 67.0807 223.268 67.425 223.383 67.6545C223.555 67.884 223.698 68.0562 223.813 68.1709C224.846 67.9988 226.223 67.1667 227.945 65.6748C229.666 64.1254 231.617 61.744 233.798 58.5306C235.175 56.4648 236.437 54.4277 237.585 52.4193C238.733 50.3535 239.852 48.2877 240.942 46.222C242.09 44.1562 243.266 42.033 244.471 39.8524C245.676 37.6719 246.967 35.434 248.344 33.1386C249.09 33.1386 249.894 33.2247 250.754 33.3969C251.615 33.569 252.447 33.7985 253.251 34.0855C254.054 34.315 254.743 34.6019 255.316 34.9462C255.948 35.2331 256.407 35.5487 256.694 35.893C254.915 39.6803 253.251 43.3815 251.701 46.9966C250.152 50.6118 248.775 54.313 247.57 58.1002Z" fill="#004B7F"/>
</svg>
