<svg width="149" height="60" viewBox="0 0 149 60" fill="none" xmlns="http://www.w3.org/2000/svg">
<path d="M32.4682 13.8936C32.4682 15.4871 32.103 16.9977 31.3727 18.4252C30.6755 19.8195 29.6961 21.0811 28.4346 22.2098C27.173 23.3054 25.6957 24.235 24.0026 24.9985C22.3094 25.7621 20.4669 26.2767 18.475 26.5423C18.973 28.0362 19.5706 29.5799 20.2677 31.1735C20.9981 32.7338 21.7783 34.2443 22.6082 35.7051C23.4382 37.1658 24.3014 38.5104 25.1977 39.7387C26.0941 40.967 26.9738 41.9796 27.837 42.7764C27.671 43.1084 27.422 43.4403 27.09 43.7723C26.7913 44.1043 26.4261 44.4031 25.9945 44.6687C25.5961 44.9675 25.1645 45.1999 24.6997 45.3659C24.2682 45.565 23.8532 45.6646 23.4548 45.6646C22.7244 45.6646 22.0273 45.3161 21.3633 44.6189C20.6993 43.9217 20.0187 42.8262 19.3216 41.3322C18.6576 39.8051 17.9438 37.8464 17.1803 35.4561C16.4499 33.0326 15.6365 30.1277 14.7402 26.7415C14.375 26.7415 14.0098 26.7415 13.6446 26.7415C13.2794 26.7415 12.9972 26.7083 12.7981 26.6419C12.5657 26.5091 12.3167 26.2767 12.0511 25.9447C11.1547 27.8702 10.358 29.6795 9.66079 31.3727C8.96362 33.0658 8.33284 34.7091 7.76847 36.3026C7.23729 37.863 6.75591 39.3901 6.32433 40.884C5.92595 42.3448 5.57736 43.8387 5.27857 45.3659C4.14982 45.1003 3.17046 44.6189 2.3405 43.9217C1.51053 43.2245 0.730367 42.2452 -1.59141e-06 40.9836C0.132793 40.6849 0.265587 40.4027 0.398381 40.1371C0.564374 39.8383 0.763566 39.4399 0.995956 38.9419C1.22835 38.4108 1.51053 37.7468 1.84252 36.95C2.2077 36.1533 2.67248 35.0909 3.23686 33.763C3.83443 32.435 4.5316 30.8083 5.32837 28.8828C6.15834 26.9572 7.15429 24.6167 8.31624 21.8613C8.84742 20.6329 9.2956 19.554 9.66079 18.6244C10.0592 17.6948 10.4078 16.8151 10.7065 15.9851C11.0053 15.1219 11.2709 14.2754 11.5033 13.4454C11.7689 12.5823 12.0345 11.6029 12.3001 10.5073C10.7729 11.0385 9.3454 11.6361 8.01746 12.3001C6.72271 12.9308 5.64376 13.6114 4.78059 14.3418C4.48181 14.1426 4.16642 13.8438 3.83443 13.4454C3.53565 13.047 3.25346 12.6155 2.98787 12.1507C2.72228 11.6527 2.48989 11.1547 2.2907 10.6567C2.09151 10.1588 1.97531 9.71058 1.94212 9.3122C2.93807 8.64823 4.14982 8.03405 5.57736 7.46968C7.0381 6.9053 8.58183 6.42392 10.2086 6.02554C11.8353 5.59395 13.4952 5.26197 15.1883 5.02958C16.8815 4.79719 18.4584 4.68099 19.9191 4.68099C23.903 4.68099 26.9904 5.51096 29.1816 7.17089C31.3727 8.79762 32.4682 11.0385 32.4682 13.8936ZM20.3175 9.71058C20.0851 10.0094 19.72 10.6069 19.222 11.5033C18.724 12.3997 18.143 13.4786 17.4791 14.7402C16.8483 15.9685 16.1677 17.3131 15.4373 18.7738C14.7402 20.2345 14.0596 21.6787 13.3956 23.1062C15.8855 23.1062 18.1762 22.8738 20.2677 22.409C22.3592 21.9443 24.1686 21.2969 25.6957 20.4669C27.2228 19.6038 28.4014 18.6078 29.2313 17.479C30.0945 16.3171 30.5261 15.039 30.5261 13.6446C30.5261 11.9847 29.9285 10.7231 28.7334 9.85997C27.5382 8.96361 25.6957 8.51543 23.2058 8.51543C22.6414 8.51543 22.0771 8.54863 21.5127 8.61503C20.9483 8.64823 20.3507 8.69802 19.72 8.76442L20.3175 9.71058ZM36.5734 43.0752C34.6811 42.876 33.1706 42.046 32.0418 40.5853C30.9131 39.1245 30.3487 37.2654 30.3487 35.0079C30.3487 33.68 30.5479 32.3022 30.9463 30.8747C31.3446 29.4471 31.909 28.0694 32.6394 26.7415C33.3698 25.3803 34.2329 24.1022 35.2289 22.907C36.2248 21.7119 37.3038 20.6827 38.4657 19.8195C40.2917 18.4584 42.0014 17.7778 43.5949 17.7778C44.6573 18.3422 45.703 19.5208 46.7322 21.3135C46.8982 21.3135 47.0476 21.3135 47.1804 21.3135C47.3132 21.2803 47.4626 21.2637 47.6285 21.2637C49.3881 21.2637 50.2678 22.824 50.2678 25.9447C50.2678 28.0362 49.9193 30.0281 49.2221 31.9204C48.5581 33.7796 47.612 35.4727 46.3836 36.9998C45.1885 38.5269 43.7443 39.8217 42.0512 40.884C40.3913 41.9132 38.5653 42.6436 36.5734 43.0752ZM39.1131 27.3888C38.5487 28.1524 38.0176 28.9824 37.5196 29.8787C37.0216 30.7751 36.59 31.688 36.2248 32.6176C35.8597 33.514 35.5775 34.3937 35.3783 35.2569C35.1791 36.0869 35.0795 36.8338 35.0795 37.4978C35.0795 38.2946 35.2123 39.0581 35.4779 39.7885C35.7435 40.5189 36.0422 40.9338 36.3742 41.0334C37.8682 40.7015 39.2293 40.0873 40.4577 39.1909C41.7192 38.2614 42.7982 37.116 43.6945 35.7549C44.6241 34.3937 45.3378 32.85 45.8358 31.1237C46.367 29.3973 46.6326 27.5548 46.6326 25.5961C46.6326 24.7329 46.5828 24.0524 46.4832 23.5544C46.3836 23.0564 46.2176 22.6248 45.9852 22.2596C44.5245 22.6912 43.2131 23.3884 42.0512 24.3512C40.9224 25.3139 39.9431 26.3265 39.1131 27.3888ZM58.5545 43.0752C56.6622 42.876 55.1517 42.046 54.0229 40.5853C52.8942 39.1245 52.3298 37.2654 52.3298 35.0079C52.3298 33.68 52.529 32.3022 52.9274 30.8747C53.3257 29.4471 53.8901 28.0694 54.6205 26.7415C55.3508 25.3803 56.214 24.1022 57.21 22.907C58.2059 21.7119 59.2849 20.6827 60.4468 19.8195C62.2728 18.4584 63.9825 17.7778 65.576 17.7778C66.6384 18.3422 67.6841 19.5208 68.7133 21.3135C68.8793 21.3135 69.0287 21.3135 69.1615 21.3135C69.2943 21.2803 69.4436 21.2637 69.6096 21.2637C71.3692 21.2637 72.2489 22.824 72.2489 25.9447C72.2489 28.0362 71.9003 30.0281 71.2032 31.9204C70.5392 33.7796 69.593 35.4727 68.3647 36.9998C67.1695 38.5269 65.7254 39.8217 64.0323 40.884C62.3723 41.9132 60.5464 42.6436 58.5545 43.0752ZM61.0942 27.3888C60.5298 28.1524 59.9987 28.9824 59.5007 29.8787C59.0027 30.7751 58.5711 31.688 58.2059 32.6176C57.8407 33.514 57.5586 34.3937 57.3594 35.2569C57.1602 36.0869 57.0606 36.8338 57.0606 37.4978C57.0606 38.2946 57.1934 39.0581 57.459 39.7885C57.7245 40.5189 58.0233 40.9338 58.3553 41.0334C59.8493 40.7015 61.2104 40.0873 62.4387 39.1909C63.7003 38.2614 64.7792 37.116 65.6756 35.7549C66.6052 34.3937 67.3189 32.85 67.8169 31.1237C68.3481 29.3973 68.6137 27.5548 68.6137 25.5961C68.6137 24.7329 68.5639 24.0524 68.4643 23.5544C68.3647 23.0564 68.1987 22.6248 67.9663 22.2596C66.5056 22.6912 65.1942 23.3884 64.0323 24.3512C62.9035 25.3139 61.9242 26.3265 61.0942 27.3888ZM103.443 26.0443C102.911 26.0775 102.264 26.4261 101.501 27.09C100.737 27.7208 99.907 28.5508 99.0106 29.5799C98.1475 30.5759 97.2345 31.688 96.2717 32.9164C95.3422 34.1447 94.4292 35.3731 93.5329 36.6014C92.6697 37.7966 91.8563 38.9253 91.0928 39.9877C90.3292 41.05 89.6818 41.8966 89.1506 42.5274C88.4203 42.2286 87.7895 41.797 87.2583 41.2326C86.7271 40.6351 86.3454 39.9047 86.113 39.0415C86.279 38.0124 86.5114 36.95 86.8101 35.8545C87.1089 34.7257 87.4907 33.5638 87.9555 32.3686C88.4535 31.1735 89.051 29.9285 89.7482 28.6338C90.4786 27.3058 91.3583 25.9115 92.3875 24.4508C91.8895 24.4839 91.209 24.8491 90.3458 25.5463C89.4826 26.2103 88.5531 27.09 87.5571 28.1856C86.5611 29.2479 85.532 30.4597 84.4696 31.8208C83.4073 33.1488 82.4113 34.4601 81.4818 35.7549C80.2534 37.4812 79.2243 38.9917 78.3943 40.2865C77.5975 41.5812 77.0166 42.3448 76.6514 42.5772C75.7882 41.9464 75.1906 41.2658 74.8586 40.5355C74.5267 39.8051 74.2777 38.9917 74.1117 38.0954C74.1449 37.2986 74.2611 36.3026 74.4603 35.1075C74.6927 33.9123 75.008 32.684 75.4064 31.4225C76.17 28.999 77.1494 26.5921 78.3445 24.2018C79.5728 21.8115 80.7514 19.6204 81.8801 17.6284C82.8097 17.8276 83.6397 18.143 84.37 18.5746C85.1336 19.0062 85.9304 19.637 86.7603 20.4669C86.4284 21.4961 85.9138 22.5916 85.2166 23.7536C84.5194 24.8823 83.7891 26.0775 83.0255 27.339C82.2619 28.6006 81.5648 29.8953 80.934 31.2233C80.3032 32.5512 79.8882 33.8957 79.689 35.2569C80.6186 33.9289 81.7142 32.4018 82.9757 30.6755C84.2704 28.9492 85.5818 27.3224 86.9097 25.7953C88.2709 24.2682 89.6154 22.9734 90.9434 21.9111C92.2713 20.8487 93.4665 20.3175 94.5288 20.3175C94.9272 20.3175 95.3588 20.3839 95.8236 20.5167C96.2883 20.6495 96.7199 20.8155 97.1183 21.0147C97.5167 21.2139 97.8487 21.4131 98.1143 21.6123C98.3798 21.7783 98.5292 21.9111 98.5624 22.0107C98.3964 22.6746 97.9981 23.5876 97.3673 24.7495C96.7697 25.8783 96.1223 27.0734 95.4252 28.335C94.728 29.5965 94.0806 30.8249 93.4831 32.02C92.8855 33.182 92.5369 34.1115 92.4373 34.8087C94.064 32.5844 95.5912 30.5759 97.0187 28.7832C98.4462 26.9572 99.7908 25.3969 101.052 24.1022C102.314 22.8074 103.476 21.8115 104.538 21.1143C105.634 20.4171 106.663 20.0685 107.626 20.0685C108.29 20.0685 108.904 20.2511 109.468 20.6163C110.066 20.9483 110.481 21.4463 110.713 22.1103C110.414 23.1062 109.916 24.3014 109.219 25.6957C108.555 27.09 107.875 28.5674 107.177 30.1277C106.48 31.6548 105.85 33.1654 105.285 34.6593C104.754 36.1533 104.488 37.4978 104.488 38.6929C104.488 39.3901 104.588 39.8549 104.787 40.0873C104.986 40.2865 105.269 40.3861 105.634 40.3861C106.032 40.3861 106.397 40.3197 106.729 40.1869C107.094 40.0209 107.36 39.9379 107.526 39.9379C107.725 40.0707 107.841 40.2367 107.875 40.4359C107.908 40.6351 107.924 40.8177 107.924 40.9836C107.26 41.5148 106.58 41.9464 105.883 42.2784C105.186 42.6436 104.405 42.8262 103.542 42.8262C102.745 42.8262 102.081 42.6934 101.55 42.4278C101.052 42.1622 100.637 41.797 100.305 41.3322C99.9734 40.8674 99.741 40.3363 99.6082 39.7387C99.4754 39.1411 99.409 38.4938 99.409 37.7966C99.409 36.6678 99.5584 35.5557 99.8572 34.4601C100.156 33.3314 100.505 32.269 100.903 31.2731C101.335 30.2439 101.783 29.2977 102.247 28.4346C102.712 27.5382 103.111 26.7415 103.443 26.0443ZM112.688 38.1452C112.688 36.6844 113.036 34.6427 113.733 32.02C114.43 29.3641 115.41 26.2767 116.671 22.7576C118.73 17.1471 120.655 12.4827 122.448 8.76442C124.274 5.01298 126.05 2.09151 127.776 -5.1507e-06C128.175 0.0663912 128.656 0.232384 129.22 0.497973C129.818 0.763562 130.399 1.06235 130.963 1.39434C131.528 1.69312 132.026 2.00851 132.457 2.34049C132.922 2.67248 133.221 2.93807 133.354 3.13726C130.764 6.19153 128.49 9.47819 126.531 12.9972C124.573 16.5163 122.78 20.5499 121.153 25.0981C119.759 29.0156 118.696 32.5512 117.966 35.7051C117.236 38.8257 116.871 41.4318 116.871 43.5233C116.871 44.0877 116.871 44.4363 116.871 44.5691C116.871 44.7019 116.887 44.8347 116.92 44.9675C116.456 44.9011 116.057 44.7849 115.725 44.6189C115.393 44.4529 115.177 44.2537 115.078 44.0213C115.011 43.8553 114.829 43.6063 114.53 43.2743C114.231 42.9756 113.966 42.7432 113.733 42.5772C113.434 42.378 113.186 41.8634 112.986 41.0334C112.787 40.1703 112.688 39.2075 112.688 38.1452ZM143.23 33.6136C142.466 36.0371 141.703 38.2448 140.939 40.2367C140.176 42.2286 139.362 44.0545 138.499 45.7144C137.636 47.4076 136.706 48.9513 135.71 50.3456C134.715 51.7732 133.619 53.1177 132.424 54.3793C130.897 55.9728 129.32 57.1846 127.693 58.0145C126.066 58.8777 124.44 59.3093 122.813 59.3093C121.983 59.3093 121.153 59.2097 120.323 59.0105C119.526 58.8445 118.779 58.5955 118.082 58.2635C117.352 57.9647 116.721 57.5995 116.19 57.168C115.625 56.7696 115.227 56.338 114.995 55.8732C114.995 55.4748 115.227 55.1262 115.692 54.8275C116.09 55.1926 116.422 55.4748 116.688 55.674C116.953 55.8732 117.219 56.0392 117.484 56.172C117.717 56.3048 117.982 56.3878 118.281 56.421C118.547 56.4542 118.862 56.4708 119.227 56.4708C121.12 56.4708 122.962 55.9064 124.755 54.7777C126.581 53.6821 128.291 52.1052 129.884 50.0469C131.511 48.0217 132.988 45.5484 134.316 42.627C135.644 39.7387 136.773 36.5018 137.702 32.9164C137.271 33.5804 136.74 34.3937 136.109 35.3565C135.478 36.3192 134.781 37.282 134.017 38.2448C133.254 39.1743 132.457 40.0209 131.627 40.7845C130.83 41.548 130.05 42.0626 129.287 42.3282C128.755 42.295 128.191 42.1788 127.593 41.9796C127.029 41.8136 126.481 41.5646 125.95 41.2326C125.452 40.9006 125.004 40.5023 124.606 40.0375C124.207 39.5727 123.942 39.0415 123.809 38.444C123.809 37.4812 123.842 36.7176 123.908 36.1533C123.975 35.5557 124.091 34.9083 124.257 34.2111C124.556 32.9496 124.987 31.522 125.552 29.9285C126.149 28.335 126.83 26.7747 127.593 25.2475C128.39 23.6872 129.253 22.243 130.183 20.9151C131.146 19.554 132.142 18.4916 133.171 17.728C133.436 17.728 133.768 17.7612 134.167 17.8276C134.565 17.8608 134.98 17.9438 135.412 18.0766C135.843 18.2094 136.258 18.3754 136.657 18.5746C137.055 18.7406 137.404 18.973 137.702 19.2718C137.337 19.6038 136.54 20.7159 135.312 22.6082C134.084 24.5005 132.723 27.2228 131.229 30.7751C131.063 31.1403 130.863 31.6714 130.631 32.3686C130.399 33.0658 130.166 33.7962 129.934 34.5597C129.735 35.3233 129.552 36.0703 129.386 36.8006C129.22 37.531 129.137 38.112 129.137 38.5435C129.137 38.8091 129.17 39.0083 129.237 39.1411C129.336 39.2739 129.419 39.3735 129.486 39.4399C130.083 39.3403 130.88 38.8589 131.876 37.9958C132.872 37.0994 134.001 35.7217 135.262 33.8625C136.059 32.6674 136.789 31.4889 137.453 30.3269C138.117 29.1318 138.765 27.9366 139.396 26.7415C140.059 25.5463 140.74 24.318 141.437 23.0564C142.134 21.7949 142.881 20.5001 143.678 19.1722C144.11 19.1722 144.574 19.222 145.072 19.3216C145.57 19.4212 146.052 19.554 146.517 19.72C146.981 19.8527 147.38 20.0187 147.712 20.2179C148.077 20.3839 148.343 20.5665 148.509 20.7657C147.479 22.9568 146.517 25.0981 145.62 27.1896C144.724 29.2811 143.927 31.4225 143.23 33.6136Z" fill="white"/>
</svg>
